<?xml version="1.0" encoding="UTF-8" standalone="no"?>
<!-- Uploaded to: SVG Repo, www.svgrepo.com, Generator: SVG Repo Mixer Tools -->

<svg
   height="374.2576"
   width="800.00458"
   version="1.1"
   id="Layer_1"
   viewBox="0 0 510.73992 238.934"
   xml:space="preserve"
   sodipodi:docname="eierkarton.svg"
   inkscape:version="1.4.3 (1:1.4.3+202512261035+0d15f75042)"
   xmlns:inkscape="http://www.inkscape.org/namespaces/inkscape"
   xmlns:sodipodi="http://sodipodi.sourceforge.net/DTD/sodipodi-0.dtd"
   xmlns="http://www.w3.org/2000/svg"
   xmlns:svg="http://www.w3.org/2000/svg"><defs
   id="defs16" /><sodipodi:namedview
   id="namedview16"
   pagecolor="#ffffff"
   bordercolor="#000000"
   borderopacity="0.25"
   inkscape:showpageshadow="2"
   inkscape:pageopacity="0.0"
   inkscape:pagecheckerboard="0"
   inkscape:deskcolor="#d1d1d1"
   inkscape:zoom="0.69442689"
   inkscape:cx="153.36388"
   inkscape:cy="43.201092"
   inkscape:window-width="1920"
   inkscape:window-height="1531"
   inkscape:window-x="20"
   inkscape:window-y="20"
   inkscape:window-maximized="0"
   inkscape:current-layer="g16" />
<g
   transform="translate(1,-270.155)"
   id="g16">
	<path
   style="fill:#f6d32d"
   d="m 236.227,437.409 c 5.973,1.707 12.8,3.413 18.773,3.413 5.973,0 12.8,-0.853 18.773,-3.413 l 40.96,-64.853 c -2.56,-52.907 -28.16,-93.867 -59.733,-93.867 -31.573,0 -57.173,41.813 -59.733,93.867 z"
   id="path1"
   transform="translate(-1.1989486e-8)" /><path
   style="fill:#f6d32d"
   d="m 398.36,437.409 c 5.973,1.707 11.947,3.413 18.773,3.413 6.826,0 12.8,-0.853 18.773,-3.413 l 40.96,-64.853 c -2.56,-52.907 -28.16,-93.867 -59.733,-93.867 -31.573,0 -57.173,41.813 -59.733,93.867 z"
   id="path2"
   transform="translate(-1.1989486e-8)" /><path
   style="fill:#f6d32d"
   d="m 74.093,437.409 c 5.973,2.56 11.947,3.413 18.773,3.413 6.826,0 12.8,-0.853 18.773,-3.413 l 40.96,-64.853 c -2.56,-52.907 -28.16,-93.867 -59.733,-93.867 -31.573,0 -57.173,41.813 -59.733,93.867 z"
   id="path3"
   transform="translate(-1.1989486e-8)" />
	<polygon
   style="fill:#b5835a"
   points="195.267,432.289 152.6,432.289 118.467,500.555 7.533,500.555 7.533,372.555 33.133,372.555 75.8,440.822 109.933,440.822 152.6,372.555 195.267,372.555 237.933,440.822 272.067,440.822 314.733,372.555 357.4,372.555 400.067,440.822 434.2,440.822 476.867,372.555 502.467,372.555 502.467,500.555 391.533,500.555 357.4,432.289 314.733,432.289 280.6,500.555 229.4,500.555 "
   id="polygon3"
   transform="translate(0,-5.10737)" />
	
	
	
	
	<path
   d="m 67.267,372.555 h -0.853 c -5.12,0 -8.533,-4.267 -7.68,-9.387 4.267,-34.133 21.333,-58.88 34.133,-58.88 5.12,0 8.533,3.413 8.533,8.533 0,4.267 -3.413,7.68 -6.827,8.533 -3.413,2.56 -15.36,17.067 -18.773,44.373 -0.853,4.268 -4.267,6.828 -8.533,6.828 z"
   id="path8"
   style="fill:#e5a50a" />
	<path
   d="m 229.4,372.555 h -0.853 c -4.267,-0.853 -7.68,-5.12 -7.68,-9.387 4.267,-33.28 21.333,-58.88 34.133,-58.88 5.12,0 8.533,3.413 8.533,8.533 0,4.267 -3.413,7.68 -6.827,8.533 -2.56,1.707 -15.36,14.507 -18.773,43.52 -0.853,4.268 -4.266,7.681 -8.533,7.681 z"
   id="path9"
   style="fill:#e5a50a" />
	<path
   d="m 391.533,372.555 h -0.853 c -4.267,-0.853 -7.68,-5.12 -7.68,-9.387 4.267,-33.28 21.333,-58.88 34.133,-58.88 5.12,0 8.533,3.413 8.533,8.533 0,4.267 -3.413,7.68 -6.827,8.533 -2.56,1.707 -15.36,14.507 -18.773,43.52 -0.853,4.268 -4.266,7.681 -8.533,7.681 z m 27.307,-51.2 z"
   id="path10"
   style="fill:#e5a50a" />
	
	
	
	
	
	
</g>
</svg>
